PathFileType	4	(X/Y/Z)	SUBJ26_3_walk_RCNL2025.trc
DataRate	CameraRate	NumFrames	NumMarkers	Units	OrigDataRate	OrigDataStartFrame	OrigNumFrames
100	100	9	25	mm	100	332	379
Frame#	Time	R_Shoulder			L_Shoulder			C7			J_Notch			R_Elbow			L_Elbow			R_Wrist			L_Wrist			R_Asis			L_Asis			Sacral			Thoracic			Sternum			R_Thigh_Lateral			R_Knee_Lateral			R_Shank_Lateral			R_Ankle_Lateral			R_Heel			R_Toe			L_Thigh_Lateral			L_Knee_Lateral			L_Shank_Lateral			L_Ankle_Lateral			L_Heel			L_Toe		
		X1	Y1	Z1	X2	Y2	Z2	X3	Y3	Z3	X4	Y4	Z4	X5	Y5	Z5	X6	Y6	Z6	X7	Y7	Z7	X8	Y8	Z8	X9	Y9	Z9	X10	Y10	Z10	X11	Y11	Z11	X12	Y12	Z12	X13	Y13	Z13	X14	Y14	Z14	X15	Y15	Z15	X16	Y16	Z16	X17	Y17	Z17	X18	Y18	Z18	X19	Y19	Z19	X20	Y20	Z20	X21	Y21	Z21	X22	Y22	Z22	X23	Y23	Z23	X24	Y24	Z24	X25	Y25	Z25
332	3.31000000	1662.342285	1306.550537	350.799316	1618.398193	1313.170288	17.984999	1559.524414	1367.016602	204.579666	1705.069092	1273.863403	173.540863	1603.723267	997.174072	472.405518	1506.948242	997.447632	-66.610558	1716.141663	770.412750	459.873398	1540.011536	754.487915	-95.993099	1693.874756	900.341492	322.166229	1666.007446	910.232117	24.087036	1476.754272	903.356934	197.564270	1489.678223	1019.089600	199.238480	1759.034180	1016.395752	177.122238	1560.589966	570.418884	390.561981	1538.963501	426.710724	331.468048	1421.855225	332.931061	369.236786	1251.854980	165.844589	287.767670	1219.572632	213.230698	233.601624	1299.616333	60.405792	231.717514	1689.446167	595.100769	4.931971	1744.802734	439.803009	93.042274	1760.353516	259.175201	36.698677	1753.479858	58.129272	133.493271	1688.139160	38.754276	180.653717	1865.787598	44.148018	183.582443
333	3.32000000	1675.157959	1307.948486	350.020203	1631.413086	1314.637939	17.325920	1572.489258	1368.613647	203.829086	1717.824341	1275.223755	172.807312	1614.158813	998.671631	471.244202	1522.780396	998.383301	-68.411003	1723.477905	770.421631	458.376846	1560.215637	755.991760	-97.794292	1705.335815	900.823853	321.744934	1677.574951	911.703613	22.970331	1488.666260	904.871765	196.969818	1501.489014	1020.929749	198.751678	1771.198853	1017.085144	176.533844	1579.194580	569.753296	392.172058	1562.429810	425.421570	334.495911	1445.267822	333.074036	372.489685	1271.397949	171.468475	290.175110	1239.784180	219.782272	236.545059	1316.888184	64.642815	234.689072	1695.927246	595.944641	4.050288	1748.882324	439.583618	92.148941	1761.766235	258.716370	36.298119	1753.417358	57.976433	133.365433	1688.041626	38.752514	180.524200	1865.742188	44.153599	183.510666
334	3.33000000	1687.796143	1309.241943	349.356842	1644.362061	1316.018433	16.746164	1585.338989	1370.233887	203.159088	1730.450928	1276.498169	172.179977	1624.556885	1000.028320	470.054016	1538.780396	999.294373	-70.252487	1730.792053	770.354462	456.892914	1580.828125	757.574432	-99.511780	1716.615845	901.417786	321.504456	1688.967407	913.014832	21.989803	1500.269287	906.553040	196.199219	1513.121826	1022.798279	198.209198	1783.131714	1017.749207	176.147934	1597.685669	569.493469	393.506775	1586.144287	424.749878	337.315460	1469.282227	333.333496	375.400452	1292.292114	176.346588	292.259369	1260.949829	224.891556	238.791290	1337.198242	68.813820	238.138748	1701.899780	596.782593	3.156944	1752.693970	439.463684	91.264114	1763.025513	258.319885	35.901459	1753.268677	57.777054	133.224014	1687.924561	38.748016	180.386597	1865.687866	44.191147	183.423203
335	3.34000000	1700.262085	1310.466553	348.792358	1657.216187	1317.322144	16.240664	1598.067993	1371.877930	202.572769	1742.944214	1277.704956	171.648895	1634.929932	1001.278625	468.828369	1554.960449	1000.191162	-72.115044	1738.097900	770.240601	455.419647	1601.808228	759.260345	-101.131855	1727.781494	902.181458	321.413544	1700.186523	914.243347	21.173071	1511.577637	908.403564	195.281219	1524.613159	1024.693237	197.633896	1794.833008	1018.440369	175.967316	1616.032471	569.609619	394.519012	1610.055542	424.717743	339.908417	1493.787109	333.761353	377.897827	1314.547729	180.267746	294.057739	1283.073120	228.401413	240.371552	1360.350342	72.608116	241.990616	1707.664795	597.685669	2.239206	1756.365601	439.441620	90.404953	1764.254150	258.010590	35.462818	1753.065796	57.539879	133.058197	1687.806396	38.750607	180.234497	1865.647583	44.250309	183.329330
336	3.35000000	1712.560059	1311.660156	348.310760	1669.946411	1318.565430	15.800302	1610.668213	1373.538696	202.055649	1755.302979	1278.865356	171.202042	1645.281372	1002.460510	467.563934	1571.316772	1001.079712	-73.970711	1745.412415	770.117218	453.954865	1623.117249	761.074097	-102.642323	1738.895508	903.157898	321.419922	1711.230591	915.449463	20.520592	1522.623535	910.404724	194.265549	1536.002686	1026.600952	197.046417	1806.314453	1019.205200	175.972427	1634.261230	570.042542	395.211517	1634.131470	425.278625	342.254578	1518.712280	334.320282	379.959839	1338.153320	183.061005	295.625519	1306.151733	230.218750	241.393234	1386.058960	75.781830	246.152557	1713.479370	598.675415	1.313092	1759.968750	439.495728	89.584579	1765.529297	257.799957	34.954674	1752.853027	57.285980	132.862854	1687.700806	38.766556	180.062820	1865.629883	44.317646	183.229813
337	3.36000000	1724.693726	1312.857300	347.899719	1682.536743	1319.768799	15.413956	1623.131226	1375.201538	201.578918	1767.530273	1279.999878	170.826233	1655.604248	1003.610046	466.262878	1587.834351	1001.964905	-75.790878	1752.756531	770.025543	452.498428	1644.715759	763.036133	-104.033417	1750.007080	904.364502	321.459442	1722.106323	916.666138	20.007858	1533.449951	912.521301	193.214645	1547.329468	1028.498047	196.460587	1817.600952	1020.075806	176.125916	1652.431030	570.725830	395.620911	1658.341675	426.346344	344.319031	1544.024048	334.905426	381.612183	1363.064331	184.613480	297.028046	1330.170166	230.308823	242.011490	1414.011963	78.185043	250.524414	1719.529297	599.735413	0.410264	1763.533569	439.595734	88.811584	1766.874756	257.677490	34.373447	1752.668213	57.034534	132.639465	1687.617798	38.799717	179.869446	1865.628906	44.372124	183.116241
338	3.37000000	1736.666016	1314.084961	347.551208	1694.996948	1320.954346	15.071090	1635.452759	1376.847046	201.114059	1779.634277	1281.123779	170.507980	1665.882080	1004.757141	464.934174	1604.493530	1002.851624	-77.554016	1760.154358	770.005768	451.053040	1666.562256	765.158752	-105.297523	1761.148926	905.788574	321.466125	1732.843506	917.900208	19.592062	1544.102783	914.704956	192.197006	1558.628784	1030.357910	195.882645	1828.728516	1021.064758	176.379776	1670.600830	571.600525	395.791473	1682.642334	427.824249	346.051910	1569.708252	335.388092	382.911285	1389.212769	184.871399	298.334167	1355.105591	228.683624	242.395828	1443.908569	79.757195	255.003876	1725.917603	600.828125	-0.435257	1767.066650	439.715210	88.094055	1768.273926	257.617920	33.740013	1752.532227	56.797836	132.395218	1687.563477	38.852970	179.657120	1865.634155	44.393494	182.981888
339	3.38000000	1748.479370	1315.358643	347.260132	1707.360718	1322.140015	14.762272	1647.635010	1378.452271	200.639862	1791.625610	1282.243652	170.235077	1676.091187	1005.921997	463.593170	1621.270752	1003.740906	-79.246918	1767.631531	770.091339	449.623505	1688.613831	767.444489	-106.429775	1772.339233	907.388489	321.379913	1743.491455	919.139099	19.220558	1554.630127	916.896545	191.283264	1569.928711	1032.152954	195.314804	1839.742432	1022.163086	176.683411	1688.811768	572.617981	395.752472	1706.969116	429.622986	347.399963	1595.748779	335.655640	383.920074	1416.525146	183.830017	299.610626	1380.939819	225.392288	242.703537	1475.475952	80.502838	259.493988	1732.667969	601.909729	-1.195425	1770.559082	439.838593	87.444389	1769.697388	257.598755	33.092693	1752.451294	56.583176	132.141510	1687.541504	38.929085	179.433182	1865.641113	44.372753	182.831711
340	3.39000000	1760.136230	1316.679932	347.022247	1719.666260	1323.334229	14.476648	1659.686157	1379.991089	200.142166	1803.515747	1283.355103	169.998611	1686.203735	1007.111633	462.259918	1638.140015	1004.626526	-80.863670	1775.213257	770.303711	448.215271	1710.827576	769.885406	-107.429218	1783.589478	909.100769	321.151947	1754.094238	920.356873	18.839073	1565.085571	919.028625	190.542694	1581.250000	1033.852783	194.760376	1850.691650	1023.342468	176.990570	1707.083862	573.732056	395.511475	1731.240356	431.666199	348.320740	1622.115356	335.636871	384.688538	1444.934570	181.521057	300.916687	1407.667358	220.514984	243.065094	1508.473999	80.465729	263.909576	1739.738037	602.938538	-1.850067	1773.992310	439.961151	86.879990	1771.122314	257.611359	32.475212	1752.423340	56.395542	131.892197	1687.553223	39.030491	179.207016	1865.652710	44.314125	182.681595
